<svg width="105" height="33" viewBox="0 0 105 33" fill="none" xmlns="http://www.w3.org/2000/svg">
<path d="M0 6.62594C0 2.22752 3.09702 0.0283203 9.29105 0.0283203C15.5005 0.0283203 18.6053 2.22752 18.6053 6.62594V10.8529H12.1294V6.62508C12.1294 5.2158 11.191 4.50593 9.31424 4.49549H9.26875C7.40745 4.49549 6.4768 5.20535 6.4768 6.62508V9.47525C6.4768 10.8741 8.49866 12.5877 12.5424 14.616C16.5861 16.6333 18.608 19.0516 18.608 21.8707V25.8418C18.608 30.2513 15.511 32.456 9.31692 32.456C3.10743 32.445 0.00268133 30.2402 0.00268133 25.8418V21.614H6.47858V25.8418C6.47858 27.2621 7.42439 27.972 9.31602 27.9714C11.1928 27.9714 12.1312 27.2615 12.1312 25.8418V22.2536C12.1312 20.7382 10.1093 18.966 6.06559 16.9371C2.02186 14.9192 0 12.4638 0 9.57099V6.62594Z" fill="#1A987C"/>
<path d="M84.2843 0V16.9871C84.2843 18.356 83.3451 19.5979 81.8269 20.4926C80.9049 21.0206 79.9029 21.4024 78.8583 21.624V32.4851H72.9328V21.624C69.7626 20.9155 67.5059 19.1062 67.5059 16.9836V0H73.55V16.9592C73.55 17.7251 74.6008 18.3465 75.8987 18.3465C77.1965 18.3465 78.2482 17.7251 78.2482 16.9592V0H84.2843Z" fill="#1A987C"/>
<path d="M96.0184 0C91.5058 0 87.8477 1.9886 87.8477 4.44367V32.4912H93.7295V21.6257C94.4868 21.7437 95.2524 21.8019 96.0193 21.7997C98.0255 21.8398 100.011 21.3927 101.796 20.4987C103.274 19.6954 104.188 18.584 104.188 17.3561V4.44367C104.188 1.9886 100.53 0 96.0184 0ZM98.3064 13.8749C98.3064 13.8819 98.3064 13.888 98.3064 13.895C98.3064 13.9019 98.3064 13.908 98.3064 13.915V17.5319C98.3064 18.2185 97.2806 18.7746 96.0184 18.7746C95.4564 18.7866 94.9002 18.6615 94.4003 18.4109C94.218 18.3363 94.0597 18.2154 93.9415 18.0608C93.8234 17.9062 93.7499 17.7236 93.7286 17.5319V4.34446C93.7286 3.65781 94.7544 3.10169 96.0184 3.10169C96.5798 3.09004 97.1353 3.21506 97.6347 3.46547C97.817 3.54 97.9754 3.66086 98.0935 3.81546C98.2117 3.97006 98.2852 4.15274 98.3064 4.34446V13.8749Z" fill="#1A987C"/>
<path d="M41.4408 0V4.41147H34.5474V32.4895H28.6219V4.41147H21.7285V0H41.4408Z" fill="#1A987C"/>
<path d="M63.9131 6.30708C63.691 2.80505 59.5646 0.0131836 54.5052 0.0131836C49.4458 0.0131836 45.3176 2.80505 45.0973 6.30708H45.0866V10.9083L42.4668 9.82911C42.471 11.4536 42.4754 13.0782 42.4802 14.7027L45.0866 15.7557V25.7719C45.0866 29.4123 49.3031 32.3625 54.5052 32.3625C59.7065 32.3625 63.9238 29.4123 63.9238 25.7719V21.4892H57.1446V25.9833C57.1446 27.0024 55.9636 27.8283 54.5079 27.8283C53.0513 27.8283 51.8712 27.0024 51.8712 25.9833V20.6607C51.8712 20.6502 51.8712 20.6407 51.8712 20.6311C51.8712 20.6215 51.8712 20.6163 51.8712 20.6093C51.8712 20.6024 51.8712 20.5954 51.8712 20.5876C51.8712 20.5797 51.8712 20.5684 51.8712 20.558V18.7374C52.7385 18.9125 53.6221 19 54.5079 18.9984V18.9984C58.8225 18.9984 62.4565 16.9681 63.5715 14.1988H63.5813V14.1718C63.8067 13.6099 63.9231 13.012 63.9247 12.4086V6.30794L63.9131 6.30708ZM54.5052 14.5069C54.1361 14.5078 53.769 14.4517 53.4178 14.3407L52.8515 14.1074L51.8702 13.6584V7.29572C51.8702 7.28615 51.8702 7.27658 51.8702 7.26613C51.8702 7.25569 51.8702 7.24698 51.8702 7.23653V6.4585C51.8702 5.4394 53.0512 4.61263 54.507 4.61263C55.9636 4.61263 57.1437 5.43853 57.1437 6.4585V7.23567C57.1437 7.24611 57.1437 7.25481 57.1437 7.26526C57.1437 7.2757 57.1437 7.28527 57.1437 7.29484V12.661C57.1428 13.6819 55.9627 14.5069 54.5061 14.5069H54.5052Z" fill="url(#paint0_linear_7259_126335)"/>
<defs>
<linearGradient id="paint0_linear_7259_126335" x1="45.428" y1="11.1414" x2="65.3911" y2="16.0232" gradientUnits="userSpaceOnUse">
<stop stop-color="#89C739"/>
<stop offset="0.414" stop-color="#6DBE4D"/>
<stop offset="1" stop-color="#1A987C"/>
</linearGradient>
</defs>
</svg>
